<?xml version="1.0" encoding="UTF-8" standalone="no"?>
<svg xmlns="http://www.w3.org/2000/svg" xmlns:xlink="http://www.w3.org/1999/xlink" version="1.1" viewBox="0 0 300 100">
  <g>
    <!-- E letter -->
    <path d="M20,20 L20,80 L60,80 L60,70 L30,70 L30,55 L55,55 L55,45 L30,45 L30,30 L60,30 L60,20 Z" fill="#1a237e"/>
    <!-- C letter -->
    <path d="M70,20 C60,20 50,30 50,50 C50,70 60,80 70,80 C80,80 90,75 95,65 L85,60 C83,65 78,70 70,70 C65,70 60,65 60,50 C60,35 65,30 70,30 C78,30 83,35 85,40 L95,35 C90,25 80,20 70,20 Z" fill="#ff6f00"/>
    <!-- Gear icon -->
    <circle cx="110" cy="50" r="20" fill="#f44336"/>
    <circle cx="110" cy="50" r="15" fill="white"/>
    <path d="M110,35 L113,35 L115,40 L120,38 L123,40 L120,45 L125,48 L123,52 L118,50 L115,55 L113,55 L110,50 L107,55 L105,55 L102,50 L97,52 L95,48 L100,45 L97,40 L100,38 L105,40 L107,35 Z" fill="#9e9e9e"/>
    <circle cx="110" cy="50" r="5" fill="white"/>
  </g>
  <!-- Company name -->
  <text x="150" y="40" font-family="Arial" font-size="16" font-weight="bold" text-anchor="middle" fill="#1a237e">ECO THAI CO.,LTD.</text>
  <!-- Thai name -->
  <text x="150" y="80" font-family="Arial" font-size="14" text-anchor="middle" fill="#1a237e">บริษัท อีซีโอ ไทย จำกัด</text>
</svg>
  <text x="150" y="85" font-family="Arial, sans-serif" font-size="14" font-weight="bold" text-anchor="middle" fill="#800000">ECO THAI CO.,LTD.</text>
</svg>
