<?xml version="1.0" encoding="UTF-8" standalone="no"?>
<svg xmlns="http://www.w3.org/2000/svg" xmlns:xlink="http://www.w3.org/1999/xlink" version="1.1" viewBox="0 0 300 120" width="300" height="120">
  <!-- Background - transparent -->
  <rect width="300" height="120" fill="white" rx="5" ry="5"/>
  
  <!-- Main Logo Group -->
  <g transform="translate(60, 20)">
    <!-- Lightning Bolt -->
    <path d="M80,0 L50,45 L70,45 L40,90 L45,60 L30,60 L60,0 Z" fill="#FFD700" stroke="#FF8C00" stroke-width="2"/>
    
    <!-- Circle around lightning bolt -->
    <circle cx="60" cy="45" r="40" fill="none" stroke="#1E88E5" stroke-width="3"/>
    
    <!-- Electric circuit lines -->
    <path d="M10,45 L20,45 M100,45 L110,45" stroke="#1E88E5" stroke-width="3"/>
    <path d="M20,25 C30,25 30,45 40,45" stroke="#1E88E5" stroke-width="3" fill="none"/>
    <path d="M20,65 C30,65 30,45 40,45" stroke="#1E88E5" stroke-width="3" fill="none"/>
    <path d="M80,45 C90,45 90,25 100,25" stroke="#1E88E5" stroke-width="3" fill="none"/>
    <path d="M80,45 C90,45 90,65 100,65" stroke="#1E88E5" stroke-width="3" fill="none"/>
    
    <!-- Small circles at connection points -->
    <circle cx="20" cy="25" r="3" fill="#1E88E5"/>
    <circle cx="20" cy="45" r="3" fill="#1E88E5"/>
    <circle cx="20" cy="65" r="3" fill="#1E88E5"/>
    <circle cx="100" cy="25" r="3" fill="#1E88E5"/>
    <circle cx="100" cy="45" r="3" fill="#1E88E5"/>
    <circle cx="100" cy="65" r="3" fill="#1E88E5"/>
  </g>
  
  <!-- Company Name -->
  <text x="150" y="95" font-family="Arial, sans-serif" font-size="16" font-weight="bold" text-anchor="middle" fill="#1E3A8A">ECO THAI CO.,LTD.</text>
  
  <!-- Thai Company Name -->
  <text x="150" y="115" font-family="Arial, sans-serif" font-size="12" text-anchor="middle" fill="#1E3A8A">บริษัท อีซีโอ ไทย จำกัด</text>
</svg>
